Coordinates
version=1
nRows=60
nColumns=12
inDegrees=yes

Units are S.I. units (second, meters, Newtons, ...)
Angles are in degrees

endheader
time	SC_y	SC_z	SC_x	AC_y	AC_z	AC_x	GH_y	GH_z	GH_yy	EL_x	PS_y
       0.0              -46.03          17.57          60.82          50.33         -5.702         -4.188          177.0          60.83         -142.3          66.57          61.66
   0.03966              -46.03          17.57          60.82          50.32           -5.7         -4.184          177.0          60.83         -142.2          66.58          61.65
   0.07932              -46.03          17.57          60.81          50.32         -5.699         -4.181          176.9          60.83         -142.2          66.59          61.65
     0.119              -46.03          17.57          60.81          50.32         -5.698         -4.177          176.9          60.82         -142.2           66.6          61.64
    0.1586              -46.03          17.57           60.8          50.32         -5.697         -4.173          176.9          60.82         -142.2          66.61          61.64
    0.1983              -46.03          17.57           60.8          50.32         -5.695         -4.169          176.9          60.81         -142.1          66.62          61.63
    0.2379              -46.03          17.57          60.79          50.31         -5.694         -4.164          176.8          60.81         -142.1          66.63          61.62
    0.2776              -46.03          17.58          60.78          50.31         -5.692         -4.159          176.8          60.81         -142.0          66.65          61.62
    0.3173              -46.03          17.58          60.78          50.31          -5.69         -4.154          176.8           60.8         -142.0          66.66          61.61
    0.3569              -46.03          17.58          60.77           50.3         -5.688         -4.148          176.7          60.79         -142.0          66.68           61.6
    0.3966              -46.02          17.58          60.76           50.3         -5.686         -4.142          176.7          60.79         -141.9          66.69          61.59
    0.4362              -46.02          17.58          60.75           50.3         -5.684         -4.136          176.7          60.78         -141.9          66.71          61.58
    0.4759              -46.02          17.58          60.74          50.29         -5.682         -4.129          176.6          60.77         -141.8          66.73          61.57
    0.5156              -46.02          17.58          60.73          50.29         -5.679         -4.121          176.6          60.77         -141.7          66.75          61.56
    0.5552              -46.02          17.58          60.72          50.28         -5.676         -4.113          176.5          60.76         -141.7          66.77          61.55
    0.5949              -46.02          17.58          60.71          50.28         -5.673         -4.104          176.5          60.75         -141.6          66.79          61.53
    0.6345              -46.02          17.58           60.7          50.27          -5.67         -4.094          176.4          60.74         -141.5          66.81          61.52
    0.6742              -46.02          17.59          60.68          50.27         -5.667         -4.084          176.3          60.73         -141.4          66.84           61.5
    0.7138              -46.02          17.59          60.67          50.26         -5.663         -4.072          176.3          60.72         -141.3          66.87          61.48
    0.7535              -46.01          17.59          60.65          50.25         -5.659         -4.059          176.2           60.7         -141.2           66.9          61.47
    0.7932              -46.01          17.59          60.63          50.25         -5.654         -4.046          176.1          60.69         -141.1          66.94          61.44
    0.8328              -46.01          17.59          60.61          50.24         -5.649          -4.03          176.0          60.68         -141.0          66.98          61.42
    0.8725              -46.01          17.59          60.59          50.23         -5.643         -4.013          175.9          60.66         -140.9          67.02           61.4
    0.9121               -46.0           17.6          60.57          50.22         -5.637         -3.995          175.8          60.64         -140.7          67.07          61.37
    0.9518               -46.0           17.6          60.54          50.21          -5.63         -3.974          175.7          60.62         -140.6          67.12          61.34
    0.9914               -46.0           17.6          60.51          50.19         -5.622         -3.951          175.5           60.6         -140.4          67.18           61.3
     1.031               -46.0          17.61          60.47          50.18         -5.614         -3.925          175.4          60.57         -140.2          67.25          61.26
     1.071              -45.99          17.61          60.43          50.16         -5.604         -3.896          175.2          60.54         -139.9          67.33          61.22
      1.11              -45.99          17.61          60.39          50.15         -5.593         -3.863          175.0          60.51         -139.7          67.41          61.17
      1.15              -45.98          17.62          60.34          50.12          -5.58         -3.825          174.8          60.47         -139.4          67.51          61.11
      1.19              -45.98          17.62          60.28           50.1         -5.566         -3.783          174.5          60.43         -139.0          67.62          61.05
     1.229              -45.97          17.63          60.22          50.07          -5.55         -3.734          174.2          60.38         -138.6          67.74          60.97
     1.269              -45.96          17.64          60.14          50.04         -5.531         -3.677          173.9          60.32         -138.2          67.89          60.89
     1.309              -45.95          17.65          60.06          50.01         -5.509         -3.611          173.5          60.25         -137.6          68.06          60.79
     1.348              -45.94          17.66          59.95          49.96         -5.483         -3.534          173.0          60.18         -137.0          68.26          60.67
     1.388              -45.93          17.67          59.83          49.91         -5.452         -3.444          172.5          60.09         -136.3          68.49          60.54
     1.428              -45.92          17.68          59.69          49.85         -5.416         -3.336          171.8          59.98         -135.4          68.77          60.37
     1.467               -45.9           17.7          59.52          49.78         -5.373         -3.206          171.0          59.85         -134.4           69.1          60.18
     1.507              -45.88          17.72          59.31          49.69         -5.321          -3.05          170.1          59.69         -133.1           69.5          59.94
     1.547              -45.85          17.74          59.05          49.59         -5.257         -2.859          168.9           59.5         -131.6          69.99          59.66
     1.586              -45.82          17.77          58.74          49.46         -5.178         -2.623          167.5          59.26         -129.7           70.6           59.3
     1.626              -45.78          17.81          58.35          49.29         -5.079         -2.329          165.7          58.97         -127.3          71.36          58.86
     1.666              -45.73          17.86          57.86          49.09         -4.956         -1.959          163.5          58.59         -124.4          72.31           58.3
     1.705              -45.67          17.92          57.23          48.82         -4.798         -1.488          160.6          58.12         -120.6          73.52          57.59
     1.745              -45.59           18.0          56.43          48.49         -4.596        -0.8856          157.0          57.52         -115.8          75.08          56.68
     1.785              -45.48           18.1           55.4          48.06         -4.337        -0.1123          152.3          56.74         -109.5          77.07          55.52
     1.824              -45.35          18.22          54.09          47.51         -4.007         0.8755          146.3          55.75         -101.6          79.61          54.03
     1.864              -45.18          18.38          52.44          46.82         -3.591          2.117          138.8           54.5         -91.64          82.81          52.16
     1.904              -44.98          18.58          50.42          45.98         -3.084          3.631          129.6          52.98         -79.49          86.71          49.87
     1.943              -44.75           18.8          48.09           45.0         -2.497          5.385          119.0          51.21          -65.4          91.22          47.23
     1.983              -44.49          19.05          45.56          43.94         -1.861          7.285          107.5           49.3         -50.14          96.12          44.37
     2.023              -44.24          19.29          43.04          42.89         -1.226          9.185          95.95           47.4         -34.89          101.0           41.5
     2.062               -44.0          19.52           40.7          41.91        -0.6383          10.94          85.32          45.63          -20.8          105.5          38.86
     2.102               -43.8          19.71          38.69          41.07        -0.1317          12.45          76.15          44.11         -8.645          109.4          36.58
     2.142              -43.63          19.87          37.04          40.38         0.2841          13.69          68.62          42.86          1.329          112.6          34.71
     2.181               -43.5           20.0          35.73          39.83         0.6147          14.68          62.64          41.87          9.261          115.2          33.22
     2.221              -43.39           20.1           34.7           39.4         0.8735          15.46          57.95          41.09          15.47          117.2          32.05
     2.261              -43.31          20.18           33.9          39.06          1.075          16.06           54.3          40.49          20.31          118.7          31.14
       2.3              -43.25          20.24          33.27           38.8          1.233          16.53          51.45          40.01          24.09          119.9          30.43
      2.34               -43.2          20.29          32.78           38.6          1.357           16.9           49.2          39.64          27.06          120.9          29.88
